<?xml version="1.0" encoding="utf-8"?>
<!-- Generator: Adobe Illustrator 22.1.0, SVG Export Plug-In . SVG Version: 6.00 Build 0)  -->
<svg version="1.1" id="Layer_1" xmlns="http://www.w3.org/2000/svg" xmlns:xlink="http://www.w3.org/1999/xlink" x="0px" y="0px"
	 viewBox="0 0 400 400" style="enable-background:new 0 0 400 400;" xml:space="preserve">
<style type="text/css">
	.st0{fill:#FFFFFF;}
	.st1{fill:#11465B;}
	.st2{fill:#C7F9F8;}
	.st3{fill:#CEA955;}
</style>
<g>
	<path class="st0" d="M189.6,233.3c0-12.8,10.4-23.2,23.2-23.2s23.2,10.4,23.2,23.2H189.6z"/>
	<path class="st1" d="M238.9,236.1h-52.1v-2.8c0-14.4,11.7-26.1,26.1-26.1s26.1,11.7,26.1,26.1V236.1z M192.7,230.4H233
		c-1.4-9.9-9.9-17.5-20.2-17.5C202.6,212.9,194,220.5,192.7,230.4z"/>
</g>
<g>
	<circle class="st0" cx="212.8" cy="188.2" r="13.4"/>
	<path class="st1" d="M212.8,204.5c-9,0-16.3-7.3-16.3-16.3s7.3-16.3,16.3-16.3s16.3,7.3,16.3,16.3S221.8,204.5,212.8,204.5z
		 M212.8,177.7c-5.8,0-10.6,4.7-10.6,10.6s4.7,10.6,10.6,10.6s10.6-4.7,10.6-10.6S218.6,177.7,212.8,177.7z"/>
</g>
<g>
	<circle class="st2" cx="170.6" cy="187.6" r="14.4"/>
	<path class="st1" d="M170.6,204.8c-9.5,0-17.2-7.7-17.2-17.2s7.7-17.2,17.2-17.2c9.5,0,17.2,7.7,17.2,17.2S180.1,204.8,170.6,204.8
		z M170.6,176c-6.4,0-11.5,5.2-11.5,11.5s5.2,11.5,11.5,11.5c6.4,0,11.5-5.2,11.5-11.5S177,176,170.6,176z"/>
</g>
<g>
	<polygon class="st1" points="169.2,193.6 163.7,188.3 166.3,185.6 169.2,188.3 176.2,181.6 178.8,184.4 	"/>
</g>
<g>
	<circle class="st3" cx="253.8" cy="205.1" r="14.4"/>
	<path class="st1" d="M253.8,222.3c-9.5,0-17.2-7.7-17.2-17.2s7.7-17.2,17.2-17.2s17.2,7.7,17.2,17.2S263.3,222.3,253.8,222.3z
		 M253.8,193.6c-6.4,0-11.5,5.2-11.5,11.5c0,6.4,5.2,11.5,11.5,11.5c6.4,0,11.5-5.2,11.5-11.5C265.3,198.7,260.1,193.6,253.8,193.6z
		"/>
</g>
<g>
	
		<rect x="251.9" y="197.9" transform="matrix(0.6592 -0.7519 0.7519 0.6592 -67.7289 260.7198)" class="st1" width="3.8" height="14.4"/>
</g>
<g>
	
		<rect x="246.6" y="203.2" transform="matrix(0.752 -0.6592 0.6592 0.752 -72.2446 218.1635)" class="st1" width="14.4" height="3.8"/>
</g>
</svg>
