<?xml version="1.0" encoding="utf-8"?>
<!-- Generator: Adobe Illustrator 22.1.0, SVG Export Plug-In . SVG Version: 6.00 Build 0)  -->
<svg version="1.1" id="Layer_1" xmlns="http://www.w3.org/2000/svg" xmlns:xlink="http://www.w3.org/1999/xlink" x="0px" y="0px"
	 viewBox="0 0 400 400" style="enable-background:new 0 0 400 400;" xml:space="preserve">
<style type="text/css">
	.st0{fill:#D0E5EA;}
	.st1{fill:#C7F9F8;}
	.st2{fill:#11465B;}
	.st3{fill:#FFFFFF;}
	.st4{fill:#CEA955;}
</style>
<g>
	<path class="st0" d="M216.1,216.1"/>
</g>
<g>
	<path class="st1" d="M184.3,254.5c0-12.8,10.4-23.2,23.2-23.2s23.2,10.4,23.2,23.2H184.3z"/>
	<path class="st2" d="M233.6,257.4h-52.1v-2.8c0-14.4,11.7-26.1,26.1-26.1s26.1,11.7,26.1,26.1V257.4z M187.4,251.7h40.3
		c-1.4-9.9-9.9-17.5-20.2-17.5S188.7,241.8,187.4,251.7z"/>
</g>
<g>
	<circle class="st3" cx="207.5" cy="209.5" r="13.4"/>
	<path class="st2" d="M207.5,225.7c-9,0-16.3-7.3-16.3-16.3s7.3-16.3,16.3-16.3s16.3,7.3,16.3,16.3S216.5,225.7,207.5,225.7z
		 M207.5,198.9c-5.8,0-10.6,4.7-10.6,10.6s4.7,10.6,10.6,10.6s10.6-4.7,10.6-10.6S213.3,198.9,207.5,198.9z"/>
</g>
<g>
	<path class="st3" d="M152.2,238.1c0-10.2,8.2-18.4,18.4-18.4s18.4,8.2,18.4,18.4H152.2z"/>
	<path class="st2" d="M191.9,240.9h-42.5v-2.8c0-11.7,9.5-21.3,21.3-21.3s21.3,9.5,21.3,21.3V240.9z M155.3,235.2H186
		c-1.3-7.2-7.7-12.7-15.3-12.7C163,222.5,156.7,228,155.3,235.2z"/>
</g>
<g>
	<circle class="st3" cx="170.6" cy="201.2" r="10.6"/>
	<path class="st2" d="M170.6,214.7c-7.4,0-13.5-6-13.5-13.5s6-13.5,13.5-13.5c7.4,0,13.5,6,13.5,13.5S178.1,214.7,170.6,214.7z
		 M170.6,193.4c-4.3,0-7.8,3.5-7.8,7.8s3.5,7.8,7.8,7.8c4.3,0,7.8-3.5,7.8-7.8S174.9,193.4,170.6,193.4z"/>
</g>
<g>
	<path class="st3" d="M262.8,238.1c0-10.2-8.2-18.4-18.4-18.4s-18.4,8.2-18.4,18.4H262.8z"/>
	<path class="st2" d="M265.7,240.9h-42.5v-2.8c0-11.7,9.5-21.3,21.3-21.3c11.7,0,21.3,9.5,21.3,21.3V240.9z M229.1,235.2h30.6
		c-1.3-7.2-7.7-12.7-15.3-12.7S230.4,228,229.1,235.2z"/>
</g>
<g>
	<circle class="st3" cx="244.4" cy="201.2" r="10.6"/>
	<path class="st2" d="M244.4,214.7c-7.4,0-13.5-6-13.5-13.5s6-13.5,13.5-13.5c7.4,0,13.5,6,13.5,13.5S251.8,214.7,244.4,214.7z
		 M244.4,193.4c-4.3,0-7.8,3.5-7.8,7.8s3.5,7.8,7.8,7.8c4.3,0,7.8-3.5,7.8-7.8S248.7,193.4,244.4,193.4z"/>
</g>
<g>
	<polygon class="st4" points="207.5,204.8 186.2,194.9 207.5,185.3 229.2,194.9 	"/>
	<path class="st2" d="M207.5,207.9l-28.1-13.1l28.1-12.6l28.7,12.6L207.5,207.9z M193.1,194.9l14.4,6.7l14.8-6.7l-14.8-6.5
		L193.1,194.9z"/>
</g>
</svg>
