<?xml version="1.0" encoding="utf-8"?>
<!-- Generator: Adobe Illustrator 22.1.0, SVG Export Plug-In . SVG Version: 6.00 Build 0)  -->
<svg version="1.1" id="Layer_1" xmlns="http://www.w3.org/2000/svg" xmlns:xlink="http://www.w3.org/1999/xlink" x="0px" y="0px"
	 viewBox="0 0 400 400" style="enable-background:new 0 0 400 400;" xml:space="preserve">
<style type="text/css">
	.st0{fill:#D0E5EA;}
	.st1{fill:#FFFFFF;}
	.st2{fill:#11465B;}
	.st3{fill:#C7F9F8;}
	.st4{fill:#CEA955;}
</style>
<g>
	<path class="st0" d="M220.2,191.3"/>
</g>
<g>
	<circle class="st1" cx="213.2" cy="207.1" r="40.1"/>
	<path class="st2" d="M213.2,250.1c-23.7,0-43-19.3-43-43s19.3-43,43-43s43,19.3,43,43S236.9,250.1,213.2,250.1z M213.2,169.8
		c-20.6,0-37.3,16.7-37.3,37.3s16.7,37.3,37.3,37.3s37.3-16.7,37.3-37.3S233.8,169.8,213.2,169.8z"/>
</g>
<g>
	<circle class="st3" cx="213.2" cy="207.1" r="15.4"/>
	<path class="st2" d="M213.2,225.3c-10.1,0-18.2-8.2-18.2-18.2c0-10.1,8.2-18.2,18.2-18.2s18.2,8.2,18.2,18.2
		C231.4,217.1,223.3,225.3,213.2,225.3z M213.2,194.5c-6.9,0-12.6,5.6-12.6,12.6c0,6.9,5.6,12.6,12.6,12.6s12.6-5.6,12.6-12.6
		C225.7,200.2,220.1,194.5,213.2,194.5z"/>
</g>
<g>
	<polygon class="st4" points="239.6,184.1 254.9,186.6 269,172.5 255.4,168.4 251.4,154.9 237.1,169.2 	"/>
	<path class="st2" d="M255.9,189.7l-18.7-3.1l-3.2-18.4l18.7-18.7l4.9,16.6l16.7,5L255.9,189.7z M242.1,181.7l11.8,1.9l9.8-9.8
		l-10.6-3.2l-3.1-10.4l-9.9,9.9L242.1,181.7z"/>
</g>
<g>
	<line class="st1" x1="240.6" y1="183.2" x2="213.2" y2="207.1"/>
	
		<rect x="208.7" y="192.3" transform="matrix(0.7533 -0.6576 0.6576 0.7533 -72.3644 197.3344)" class="st2" width="36.3" height="5.7"/>
</g>
<g>
	<line class="st3" x1="191.2" y1="240.3" x2="179.2" y2="255.2"/>
	
		<rect x="175.7" y="244.9" transform="matrix(0.6275 -0.7786 0.7786 0.6275 -123.8796 236.4684)" class="st2" width="19.1" height="5.7"/>
</g>
<g>
	<line class="st3" x1="235.2" y1="240.3" x2="247.2" y2="255.2"/>
	
		<rect x="238.3" y="238.2" transform="matrix(0.7786 -0.6275 0.6275 0.7786 -102.0511 206.18)" class="st2" width="5.7" height="19.1"/>
</g>
</svg>
