<?xml version="1.0" encoding="utf-8"?>
<!-- Generator: Adobe Illustrator 22.1.0, SVG Export Plug-In . SVG Version: 6.00 Build 0)  -->
<svg version="1.1" id="Layer_1" xmlns="http://www.w3.org/2000/svg" xmlns:xlink="http://www.w3.org/1999/xlink" x="0px" y="0px"
	 viewBox="0 0 400 400" style="enable-background:new 0 0 400 400;" xml:space="preserve">
<style type="text/css">
	.st0{fill:#D0E5EA;}
	.st1{fill:#FFFFFF;}
	.st2{fill:#11465B;}
	.st3{fill:#CEA955;}
	.st4{fill:#C7F9F8;}
</style>
<g>
	<path class="st0" d="M219.1,184.7"/>
</g>
<g>
	<rect x="183.5" y="154.2" class="st1" width="56.9" height="75.2"/>
	<path class="st2" d="M243.2,232.3h-62.6v-80.9h62.6V232.3z M186.3,226.6h51.2v-69.5h-51.2V226.6z"/>
</g>
<g>
	<path class="st2" d="M209.8,179.6h-4.9l-1.3,3.6h-4.1l5.8-15.7h4.1l5.8,15.7h-4L209.8,179.6z M205.9,176.3h2.9l-1.5-5.2
		L205.9,176.3z"/>
	<path class="st3" d="M221.9,175.2v3.5h-2.5v-3.5H216v-2.5h3.4v-3.4h2.5v3.4h3.5v2.5H221.9z"/>
</g>
<g>
	<line class="st1" x1="195.1" y1="195.5" x2="229.2" y2="195.5"/>
	<rect x="195.1" y="192.6" class="st2" width="34.1" height="5.7"/>
</g>
<g>
	<line class="st1" x1="195.1" y1="204.9" x2="217.6" y2="204.9"/>
	<rect x="195.1" y="202.1" class="st2" width="22.6" height="5.7"/>
</g>
<g>
	<line class="st1" x1="195.1" y1="214.4" x2="217.6" y2="214.4"/>
	<rect x="195.1" y="211.6" class="st2" width="22.6" height="5.7"/>
</g>
<g>
	<circle class="st4" cx="240.3" cy="220" r="14.2"/>
	<path class="st2" d="M240.3,237.1c-9.4,0-17.1-7.7-17.1-17.1c0-9.4,7.7-17.1,17.1-17.1c9.4,0,17.1,7.7,17.1,17.1
		C257.4,229.4,249.7,237.1,240.3,237.1z M240.3,208.6c-6.3,0-11.4,5.1-11.4,11.4s5.1,11.4,11.4,11.4s11.4-5.1,11.4-11.4
		S246.6,208.6,240.3,208.6z"/>
</g>
<g>
	<polygon class="st2" points="239.3,226.2 233.8,221.6 236.2,218.7 238.9,220.9 245.2,213.8 248.1,216.3 	"/>
</g>
</svg>
