<?xml version="1.0" encoding="utf-8"?>
<!-- Generator: Adobe Illustrator 22.1.0, SVG Export Plug-In . SVG Version: 6.00 Build 0)  -->
<svg version="1.1" id="Layer_1" xmlns="http://www.w3.org/2000/svg" xmlns:xlink="http://www.w3.org/1999/xlink" x="0px" y="0px"
	 viewBox="0 0 400 400" style="enable-background:new 0 0 400 400;" xml:space="preserve">
<style type="text/css">
	.st0{fill:#FFFFFF;}
	.st1{fill:#11465B;}
	.st2{fill:#C7F9F8;}
	.st3{fill:#CEA955;}
	.st4{fill:#D0E5EA;}
</style>
<g>
	<polygon class="st0" points="164.2,246.8 259,246.8 211.6,171 	"/>
	<path class="st1" d="M264.1,249.6h-105l52.5-84L264.1,249.6z M169.3,243.9h84.5l-42.3-67.6L169.3,243.9z"/>
</g>
<g>
	<polygon class="st1" points="219.2,207.1 211.6,201.4 204,207.1 194.7,200.1 198.1,195.6 204,200 211.6,194.3 219.2,200 
		225.1,195.6 228.5,200.1 	"/>
</g>
<g>
	<path class="st1" d="M214.4,171.2h-5.7v-28.1h29.4v21.2h-23.7V171.2z M214.4,158.7h18v-9.9h-18V158.7z"/>
</g>
<g>
	<path class="st2" d="M236.3,223.7c-3.6-0.6-6.4-3.8-6.4-7.6c0-4.3,3.5-7.8,7.8-7.8c0-4.3,3.5-7.8,7.8-7.8s7.8,3.5,7.8,7.8
		c4.3,0,7.8,3.5,7.8,7.8c0,3.8-2.8,7-6.4,7.6L236.3,223.7z"/>
	<path class="st1" d="M254.7,226.5l-18.9,0c-5.1-0.9-8.8-5.3-8.8-10.4c0-5,3.4-9.1,8.1-10.3c1.1-4.6,5.3-8.1,10.3-8.1
		s9.2,3.4,10.3,8.1c4.6,1.1,8.1,5.3,8.1,10.3c0,5.2-3.7,9.6-8.8,10.4L254.7,226.5z M236.6,220.8l17.6,0c2.3-0.5,3.9-2.5,3.9-4.8
		c0-2.7-2.2-4.9-4.9-4.9h-2.8v-2.8c0-2.7-2.2-4.9-4.9-4.9s-4.9,2.2-4.9,4.9v2.8h-2.8c-2.7,0-4.9,2.2-4.9,4.9
		C232.7,218.3,234.3,220.3,236.6,220.8z"/>
</g>
<g>
	<path class="st0" d="M168.7,217c-3.6-0.6-6.4-3.8-6.4-7.6c0-4.3,3.5-7.8,7.8-7.8c0-4.3,3.5-7.8,7.8-7.8s7.8,3.5,7.8,7.8
		c4.3,0,7.8,3.5,7.8,7.8c0,3.8-2.8,7-6.4,7.6L168.7,217z"/>
	<path class="st1" d="M187.1,219.8l-18.9,0c-5.1-0.9-8.8-5.3-8.8-10.4c0-5,3.4-9.1,8.1-10.3c1.1-4.6,5.3-8.1,10.3-8.1
		c5,0,9.2,3.4,10.3,8.1c4.6,1.1,8.1,5.3,8.1,10.3c0,5.2-3.7,9.6-8.8,10.4L187.1,219.8z M169,214.1l17.6,0c2.3-0.5,3.9-2.5,3.9-4.8
		c0-2.7-2.2-4.9-4.9-4.9h-2.8v-2.8c0-2.7-2.2-4.9-4.9-4.9c-2.7,0-4.9,2.2-4.9,4.9v2.8h-2.8c-2.7,0-4.9,2.2-4.9,4.9
		C165.2,211.7,166.8,213.7,169,214.1z"/>
</g>
<g>
	<rect x="211.6" y="144" class="st3" width="23.7" height="17.5"/>
	<path class="st1" d="M238.1,164.3h-29.4v-23.1h29.4V164.3z M214.4,158.7h18v-11.8h-18V158.7z"/>
</g>
<g>
	<path class="st4" d="M219.2,203.7"/>
</g>
</svg>
