<?xml version="1.0" encoding="utf-8"?>
<!-- Generator: Adobe Illustrator 22.1.0, SVG Export Plug-In . SVG Version: 6.00 Build 0)  -->
<svg version="1.1" id="Layer_1" xmlns="http://www.w3.org/2000/svg" xmlns:xlink="http://www.w3.org/1999/xlink" x="0px" y="0px"
	 viewBox="0 0 400 400" style="enable-background:new 0 0 400 400;" xml:space="preserve">
<style type="text/css">
	.st0{fill:#F7EAD0;}
	.st1{fill:#D0E5EA;}
	.st2{fill:#CEA955;}
	.st3{fill:#3FA9F5;}
	.st4{fill:#FFFFFF;}
	.st5{fill:#11465B;}
	.st6{fill:#C7F9F8;}
</style>
<g>
	<circle class="st0" cx="211.5" cy="183.8" r="50.3"/>
</g>
<g>
	<path class="st1" d="M213.1,203.2"/>
</g>
<g>
	<path class="st2" d="M264.8,223h-4v-4c0-1.1-0.9-2-2-2c-1.1,0-2,0.9-2,2v4h-4c-1.1,0-2,0.9-2,2c0,1.1,0.9,2,2,2h4v4
		c0,1.1,0.9,2,2,2c1.1,0,2-0.9,2-2v-4h4c1.1,0,2-0.9,2-2C266.7,223.9,265.9,223,264.8,223z"/>
</g>
<g>
	<path class="st3" d="M150.7,205.1h-2.9v-2.9c0-0.8-0.6-1.4-1.4-1.4c-0.8,0-1.4,0.6-1.4,1.4v2.9H142c-0.8,0-1.4,0.6-1.4,1.4
		c0,0.8,0.6,1.4,1.4,1.4h2.9v2.9c0,0.8,0.6,1.4,1.4,1.4c0.8,0,1.4-0.6,1.4-1.4V208h2.9c0.8,0,1.4-0.6,1.4-1.4
		C152.1,205.8,151.4,205.1,150.7,205.1z"/>
</g>
<g>
	<rect x="172.5" y="199.5" class="st4" width="66.6" height="48.3"/>
	<path class="st5" d="M241.9,250.7h-72.3v-54h72.3V250.7z M175.4,245h60.9v-42.7h-60.9V245z"/>
</g>
<g>
	<rect x="167" y="179.3" class="st4" width="77.7" height="20.2"/>
	<path class="st5" d="M247.5,202.4h-83.4v-25.9h83.4V202.4z M169.8,196.7h72v-14.5h-72V196.7z"/>
</g>
<g>
	<rect x="200.4" y="179.3" class="st6" width="10.8" height="68.5"/>
	<path class="st5" d="M214.1,250.7h-16.5v-74.2h16.5V250.7z M203.2,245h5.2v-62.9h-5.2V245z"/>
</g>
<g>
	<rect x="200.4" y="179.3" class="st2" width="10.8" height="20.2"/>
	<path class="st5" d="M214.1,202.4h-16.5v-25.9h16.5V202.4z M203.2,196.7h5.2v-14.5h-5.2V196.7z"/>
</g>
<g>
	<path class="st4" d="M205.8,176.2c0,0-19-27.4-26.7-14.4C170.7,176.2,205.8,176.2,205.8,176.2z"/>
	<path class="st5" d="M211.2,179h-5.4c-4.1,0-24.8-0.4-29.7-9c-1.1-2-2-5.3,0.6-9.6c2.3-3.9,5.4-4.8,7.6-4.9
		c10.1-0.3,22.5,17.1,23.9,19.1L211.2,179z M184.6,161.1c0,0-0.1,0-0.1,0c-0.8,0-1.8,0.3-2.9,2.1c-1.4,2.5-0.8,3.5-0.6,3.9
		c1.9,3.4,10.9,5.3,18.9,5.9C195,167.1,188.6,161.1,184.6,161.1z"/>
</g>
<g>
	<path class="st4" d="M205.8,176.2c0,0,19-27.4,26.7-14.4C240.9,176.2,205.8,176.2,205.8,176.2z"/>
	<path class="st5" d="M205.8,179h-5.4l3.1-4.5c1.4-2,13.7-19.4,23.9-19.1c2.2,0.1,5.3,1,7.6,4.9c2.6,4.4,1.8,7.7,0.6,9.6
		C234.7,171.5,229.2,179,205.8,179z M227,161.1c-4,0-10.4,6-15.3,12c8-0.6,16.9-2.5,18.9-5.9c0.2-0.4,0.8-1.5-0.6-3.9
		c-1.1-1.8-2.1-2.1-2.9-2.1C227.1,161.1,227,161.1,227,161.1z"/>
</g>
<g>
	<line class="st4" x1="167" y1="179.3" x2="186.2" y2="199.5"/>
	
		<rect x="173.8" y="175.5" transform="matrix(0.7236 -0.6902 0.6902 0.7236 -81.939 174.2492)" class="st5" width="5.7" height="27.9"/>
</g>
<g>
	<line class="st4" x1="181.4" y1="179.3" x2="200.7" y2="199.5"/>
	
		<rect x="188.2" y="175.5" transform="matrix(0.7236 -0.6902 0.6902 0.7236 -77.9426 184.2292)" class="st5" width="5.7" height="27.9"/>
</g>
<g>
	<line class="st4" x1="210.3" y1="179.3" x2="229.6" y2="199.5"/>
	
		<rect x="217.1" y="175.5" transform="matrix(0.7236 -0.6902 0.6902 0.7236 -69.949 204.2032)" class="st5" width="5.7" height="27.9"/>
</g>
<g>
	<line class="st4" x1="224.8" y1="179.3" x2="244.1" y2="199.5"/>
	
		<rect x="231.6" y="175.5" transform="matrix(0.7236 -0.6902 0.6902 0.7236 -65.9526 214.1767)" class="st5" width="5.7" height="27.9"/>
</g>
</svg>
